inDegrees=no
num_controls=7
num_derivatives=13
num_iterations=241
num_multipliers=7
num_parameters=0
num_slacks=7
num_states=26
objective=0.448691
objective_accelerations=0.048611
objective_balance=0.007374
objective_effort=0.036087
objective_height=0.351678
objective_ligament=0.004941
solver_duration=3587.904163
status=Solve_Succeeded
success=true
DataType=double
version=3
OpenSimVersion=4.5
endheader
time	/jointset/ground_pelvis/pelvis_tilt/value	/jointset/ground_pelvis/pelvis_tx/value	/jointset/ground_pelvis/pelvis_ty/value	/jointset/hip_l/hip_flexion_l/value	/jointset/hip_l/hip_adduction_l/value	/jointset/hip_l/hip_rotation_l/value	/jointset/back/lumbar_extension/value	/jointset/patellofemoral_l/patellar_flexion_l/value	/jointset/knee_l/knee_flexion_l/value	/jointset/knee_l/knee_adduction_l/value	/jointset/knee_l/knee_rotation_l/value	/jointset/ankle_l/ankle_angle_l/value	/jointset/subtalar_l/subtalar_angle_l/value	/jointset/ground_pelvis/pelvis_tilt/speed	/jointset/ground_pelvis/pelvis_tx/speed	/jointset/ground_pelvis/pelvis_ty/speed	/jointset/hip_l/hip_flexion_l/speed	/jointset/hip_l/hip_adduction_l/speed	/jointset/hip_l/hip_rotation_l/speed	/jointset/back/lumbar_extension/speed	/jointset/patellofemoral_l/patellar_flexion_l/speed	/jointset/knee_l/knee_flexion_l/speed	/jointset/knee_l/knee_adduction_l/speed	/jointset/knee_l/knee_rotation_l/speed	/jointset/ankle_l/ankle_angle_l/speed	/jointset/subtalar_l/subtalar_angle_l/speed	/forceset/tau_hip_flexion_l	/forceset/tau_hip_adduction_l	/forceset/tau_hip_rotation_l	/forceset/tau_knee_flexion_l	/forceset/tau_ankle_angle_l	/forceset/tau_subtalar_angle_l	/forceset/tau_lumbar_extension	lambda_cid13_p0	lambda_cid13_p1	lambda_cid13_p2	lambda_cid13_p3	lambda_cid13_p4	lambda_cid13_p5	lambda_cid14_p0	/jointset/ground_pelvis/pelvis_tilt/accel	/jointset/ground_pelvis/pelvis_tx/accel	/jointset/ground_pelvis/pelvis_ty/accel	/jointset/hip_l/hip_flexion_l/accel	/jointset/hip_l/hip_adduction_l/accel	/jointset/hip_l/hip_rotation_l/accel	/jointset/back/lumbar_extension/accel	/jointset/patellofemoral_l/patellar_flexion_l/accel	/jointset/knee_l/knee_flexion_l/accel	/jointset/knee_l/knee_adduction_l/accel	/jointset/knee_l/knee_rotation_l/accel	/jointset/ankle_l/ankle_angle_l/accel	/jointset/subtalar_l/subtalar_angle_l/accel	gamma_cid13_p0	gamma_cid13_p1	gamma_cid13_p2	gamma_cid13_p3	gamma_cid13_p4	gamma_cid13_p5	gamma_cid14_p0
0.5	-0.4401872407863175	-0.0718898715084255	0.7667876838082521	1.246796563311369	-0.3090640452112522	-0.04988725173476927	-0.3274210304070833	0.6765336904338327	0.6765336904338292	-0.1726096617779729	0.1734482638688848	0.03559436748222364	-0.04851787426300071	-0.7285644684813412	-0.2682422570965525	-0.4848790165163123	2.338496754342446	-0.03654156360003592	0.6048617694243624	-0.6248788797816104	1.754069564825645	1.754069564825643	-0.004158823128127885	0.005764534132582288	0.2358697207407139	-0.01053339030719207	-0.2402895461593288	0.01732691228453476	-0.02146529824384745	-0.2035146154164016	0.1426930180935072	0.04189864561043195	0.2170635654042576	7.044826335411267	-22.19705635260503	6.296951668154565	-5.31896349360141	-606.8444953507129	-59.49539691061577	-28.99773408056062	0.5928461560012114	0.6810935579531678	-0.3240114436782749	-1.461144521766924	0.5392305072010278	-0.3023702043294287	1.723838843912776	-1.040438858001914	-1.040438858001932	-0.03235395506357047	0.02650388588723743	-0.1283546204897563	0.5159711533147942	-2.358434292725492e-07	-8.275380410653278e-07	1.20543848748607e-06	3.679283349879013e-08	-3.272340957143968e-07	-3.753758416475728e-09	-2.836839522111762e-07
0.51	-0.4474416479337981	-0.07453792871480447	0.7619237239726601	1.270104488929703	-0.3094033215730573	-0.04385376459644752	-0.3335837621411816	0.694019719543348	0.694019719543348	-0.1726545771019454	0.1735071505821175	0.0379459666355398	-0.04859830362016597	-0.7222218009125529	-0.2613464018417901	-0.4878128261851672	2.322798796376035	-0.03126003903510157	0.6017527765297331	-0.6076135287110643	1.742917639844004	1.742917639844005	-0.004690898187622198	0.005967540546713388	0.234429121307428	-0.005493065646485051	-0.2482001444792361	0.01774279505332326	-0.02159904390595527	-0.2049229698435577	0.1427294377665906	0.04267977309299645	0.2231967994172606	6.825889095540442	-22.3947233731006	6.210537152601188	-5.358873369128594	-611.2406680546227	-59.34787696374035	-27.9924158190076	0.6692137877828719	0.6972671920335826	-0.2631183687554234	-1.667602684936263	0.5305552150825944	-0.3278803336695815	1.735973987675325	-1.185299529671581	-1.185299529671385	-0.04367999949613814	0.01008829348032367	-0.1550613168708228	0.506914078861903	-2.944403820514766e-07	-6.558893349947972e-07	1.487368502681179e-06	1.031074966258989e-07	-3.560902431999345e-07	5.089583084298164e-08	-3.089557740246713e-07
0.52	-0.4546297810594978	-0.07711634023207666	0.7570334155123256	1.293246738718202	-0.3096881943324251	-0.03785391068739972	-0.3395722222147646	0.7113876833607617	0.711387683360765	-0.1727008223201344	0.1735666452143522	0.04028253005209857	-0.0486265595394415	-0.7153096641251546	-0.2543131192751955	-0.4901487414646747	2.305361588375304	-0.02566084311256392	0.5981351235695078	-0.5900245476785257	1.730456506405312	1.730456506405312	-0.004424801971369295	0.005886117933030474	0.2328625733892297	-9.870272924809853e-05	-0.2561107427991429	0.01815867782211221	-0.02173278956806739	-0.2063313242707129	0.1427658574396743	0.0434609005755616	0.2293300334302638	6.601297578016857	-22.59549875956886	6.129300565377005	-5.407290847153776	-615.738462783772	-59.27944689928771	-26.97787801757092	0.7067399997232411	0.708579020319609	-0.2044325658088001	-1.808994528630594	0.6027647787216867	-0.4041022174486426	1.788564836311286	-1.302280549411839	-1.302280549411837	0.127280300085872	-0.03038191967408129	-0.153544317472242	0.5867788046207808	-2.998264165045687e-07	-5.675946505982416e-07	1.5096223405392e-06	1.26234311676661e-07	-3.552339295199528e-07	9.630325692386297e-08	-3.03072031440383e-07
0.53	-0.4617460906079013	-0.07962379525307937	0.7521227424896704	1.316205779816279	-0.3099167015815471	-0.03189225164730813	-0.3453830361507208	0.7286241327860925	0.7286241327860916	-0.1727429495646274	0.1736243350870326	0.04260230393441571	-0.04860044405551621	-0.7078627044030701	-0.2471602323790518	-0.4918851197123315	2.286134233611134	-0.02011697513650782	0.5941425694193745	-0.5720774605833978	1.716585571064466	1.716585571064463	-0.004120379541156341	0.005682377759376845	0.2310230547552796	0.005237888478499416	-0.2640674515238176	0.01875566579297704	-0.02180951134464294	-0.2076061785943626	0.1425591898788969	0.04367687754173564	0.2354593487148249	6.282129542265896	-22.53320683197146	6.004909050268365	-5.29294220287512	-620.2142687030577	-58.69292984751142	-25.96314408758257	0.7770690821890136	0.7213190825530225	-0.1431999079607728	-2.026509979157697	0.5186057821107859	-0.4052172084284603	1.80689748551218	-1.466611169560105	-1.466611169560564	-0.03595762447983357	-0.01111543261525187	-0.2095252817705661	0.4944180012826433	-2.837260522790356e-07	-5.066617386341193e-07	1.437955358928678e-06	1.257652697853512e-07	-3.322721732248378e-07	1.220718628085048e-07	-2.855824376136132e-07
0.54	-0.4687852515343363	-0.08205918629346241	0.7471977137937946	1.338963166560945	-0.310092088555896	-0.02597219518764442	-0.3510125558478461	0.7457144506293869	0.7457144506293819	-0.1727856287526119	0.1736808384846957	0.04490160870131049	-0.04852349891502726	-0.6998799397314677	-0.2399003231512571	-0.4930198761086544	2.265030717693065	-0.01503678815792304	0.58981460748393	-0.5537656999123242	1.701230189998055	1.701230189998049	-0.004535190669697066	0.005648822929554027	0.2287687503047624	0.01006722858348321	-0.272024160248492	0.01935265376384165	-0.02188623312121718	-0.2088810329180126	0.14235252231812	0.0438928545079094	0.2415886639993858	5.959274607262796	-22.47352721052254	5.884655867543312	-5.19863229298497	-624.7699602892145	-58.17958885899122	-24.94902964604676	0.8139009896267857	0.7299834866498019	-0.08410819554201467	-2.18422675941017	0.5100285792274253	-0.4711837745108449	1.861499551500451	-1.599169694524808	-1.599169694524808	-0.016566411664864	0.003655149092155363	-0.2365014807856791	0.4853285840680369	-2.438535022814062e-07	-4.760014259569448e-07	1.262375981310403e-06	9.919017340494035e-08	-2.848533314831923e-07	1.261124123058177e-07	-2.552523275185659e-07
0.55	-0.475742055710466	-0.08442152138046115	0.7422643632252011	1.361500708046746	-0.3102180127709771	-0.02009751933536888	-0.3564572582173913	0.7626443159087878	0.7626443159087885	-0.1728338395121089	0.1737375707461352	0.04717678206639356	-0.04839970785026327	-0.6913982416036419	-0.2325556893288192	-0.4935460721820999	2.242196638751453	-0.0101494302973025	0.5850490095494668	-0.5351353481074476	1.684525432942835	1.684525432942834	-0.005066791149377731	0.005680244154089581	0.2262327960224605	0.01469095809504414	-0.2797113632849588	0.01962149869687798	-0.02195766897652369	-0.210358826795927	0.1423793444627827	0.04412325281335958	0.2474593923598571	5.714440434719279	-22.43654820417848	5.771192656912802	-5.138190634694284	-629.2733332752252	-57.77597489292602	-23.93621855586157	0.8776742621114498	0.7383710069251119	-0.02130229674880932	-2.375173582807154	0.4777823567134918	-0.4901945000592016	1.869716878371368	-1.738695910187842	-1.738695910187154	-0.0654628803018911	2.526600721159192e-05	-0.267108734054139	0.4508277727568257	-2.136570648833767e-07	-4.373481636708754e-07	1.131378808463749e-06	8.128254027969659e-08	-2.472572738626659e-07	1.344444636066679e-07	-2.309677754574706e-07
0.5600000000000001	-0.4826115688977672	-0.08671007659385865	0.7373288652991722	1.383801473718877	-0.3102951248140049	-0.01427268880186694	-0.3617144742922097	0.7794006201778032	0.7794006201778094	-0.1728861674792387	0.1737940451511948	0.04942560262223328	-0.04822969296277232	-0.6824217419657768	-0.2251443484310084	-0.493449347595665	2.217675554959023	-0.005274353747265878	0.5798455437291977	-0.5162684409669667	1.666517987920923	1.666517987920926	-0.005358632196270967	0.00559725165354964	0.2234981884560909	0.01931199312887326	-0.2873985663214256	0.01989034362991434	-0.02202910483183013	-0.2118366206738415	0.1424061666074455	0.04435365111880982	0.2533301207203286	5.46424544861361	-22.40154374998738	5.661372487900337	-5.087477823471201	-633.8758169424052	-57.4356951101694	-22.92562240487469	0.9128612916346971	0.7433249017243532	0.04047593643406947	-2.521627729573947	0.50757231711064	-0.5587573516720147	1.908810618621329	-1.859707287863348	-1.85970728786335	0.03138547489262052	-0.01922759592231833	-0.2762321375992148	0.4847896885216747	-1.950719626048666e-07	-3.891033618541324e-07	1.053880281343036e-06	7.377586306065303e-08	-2.21448557187482e-07	1.479263170717626e-07	-2.139378930371175e-07
0.5700000000000001	-0.4893889368084004	-0.08892426289650034	0.7323974378680225	1.405848802657191	-0.3103236611091001	-0.008501964559116858	-0.3667819156361508	0.7959704665897152	0.7959704665897156	-0.1729404118091728	0.1738491388625691	0.05164608818376736	-0.04801360447699155	-0.6729722782735291	-0.2176888836318801	-0.4927319222095499	2.191514699985446	-0.0004604820025214012	0.5742437148375024	-0.4971948293462147	1.647236301824392	1.647236301824397	-0.005501151268487353	0.005410619115345299	0.2205591889771993	0.0238768384839861	-0.2949088263560492	0.02004656970165071	-0.02206066236128526	-0.2132272001086316	0.1422564132816877	0.04442856341264818	0.2589996483690042	5.161593167773919	-22.28969483427438	5.539149828861905	-4.931828773678748	-638.3088110036729	-56.97381170634346	-21.91830093562402	0.9728992324907446	0.7472754447572426	0.1029669334713784	-2.704673026661267	0.464065114991454	-0.5694145208302116	1.91038620505584	-1.994607305144152	-1.994607305143923	-0.03873362396582958	-0.02023037760419606	-0.3086899731017502	0.4379413902801756	-1.765795403760557e-07	-3.425289440735633e-07	9.774055165246972e-07	6.651703185819169e-08	-1.964488345308655e-07	1.584170773965941e-07	-1.969327400325317e-07
